# xmcd
#
# Track frame offsets:
#	150
#	17682
#	35992
#
# Disc length: 697 seconds
#
# Revision: 0
# Processed by: cddbd v1.5.1PL0 Copyright (c) Steve Scherf et al.
# Submitted via: MusicManager 7.0.6.0 
#
DISCID=2002b703
DTITLE=Echo and The Bunnymen - Don't let it get you down
DYEAR=1900
DGENRE=Rock
TTITLE0=Don't let it get you down
TTITLE1=Rescue (Live version)
TTITLE2=Altamont (Live version)
EXTD=
EXTT0=
EXTT1=
EXTT2=
PLAYORDER=
